<?xml version="1.0"?>
<svg xmlns="http://www.w3.org/2000/svg" viewBox="0 0 600 600" width="600" height="600">
<defs>
  <radialGradient id="bg" cx="50%" cy="40%" r="78%"><stop offset="0%" stop-color="#ffffff"></stop><stop offset="58%" stop-color="#f3f8ff"></stop><stop offset="100%" stop-color="#e6eefb"></stop></radialGradient>
  <filter id="shLg" x="-30%" y="-30%" width="160%" height="160%"><feDropShadow dx="0" dy="3" stdDeviation="6" flood-color="#1c3b73" flood-opacity="0.16"></feDropShadow></filter>
  <filter id="shSm" x="-30%" y="-30%" width="160%" height="160%"><feDropShadow dx="0" dy="2" stdDeviation="3" flood-color="#1c3b73" flood-opacity="0.12"></feDropShadow></filter>
  
</defs>
<rect width="600" height="600" rx="22" fill="url(#bg)"></rect>
<g id="world" style="transform-origin:300px 300px;animation:cam 9.6s linear infinite">
  <g><line x1="300" y1="300" x2="300" y2="100" stroke="#3366cc" stroke-width="1.6" stroke-linecap="round" stroke-dasharray="200" style="animation:g1L0 9.6s linear infinite"></line><line x1="300" y1="300" x2="456" y2="175" stroke="#3366cc" stroke-width="1.6" stroke-linecap="round" stroke-dasharray="200" style="animation:g1L1 9.6s linear infinite"></line><line x1="300" y1="300" x2="495" y2="345" stroke="#3366cc" stroke-width="1.6" stroke-linecap="round" stroke-dasharray="200" style="animation:g1L2 9.6s linear infinite"></line><line x1="300" y1="300" x2="387" y2="480" stroke="#3366cc" stroke-width="1.6" stroke-linecap="round" stroke-dasharray="200" style="animation:g1L3 9.6s linear infinite"></line><line x1="300" y1="300" x2="213" y2="480" stroke="#3366cc" stroke-width="1.6" stroke-linecap="round" stroke-dasharray="200" style="animation:g1L4 9.6s linear infinite"></line><line x1="300" y1="300" x2="105" y2="345" stroke="#3366cc" stroke-width="1.6" stroke-linecap="round" stroke-dasharray="200" style="animation:g1L5 9.6s linear infinite"></line><line x1="300" y1="300" x2="144" y2="175" stroke="#3366cc" stroke-width="1.6" stroke-linecap="round" stroke-dasharray="200" style="animation:g1L6 9.6s linear infinite"></line><line x1="456" y1="175" x2="356" y2="-15" stroke="#3366cc" stroke-width="1.6" stroke-linecap="round" stroke-dasharray="215" style="animation:g2L0 9.6s linear infinite"></line><line x1="456" y1="175" x2="465" y2="-40" stroke="#3366cc" stroke-width="1.6" stroke-linecap="round" stroke-dasharray="215" style="animation:g2L1 9.6s linear infinite"></line><line x1="456" y1="175" x2="595" y2="11" stroke="#3366cc" stroke-width="1.6" stroke-linecap="round" stroke-dasharray="215" style="animation:g2L2 9.6s linear infinite"></line><line x1="456" y1="175" x2="667" y2="131" stroke="#3366cc" stroke-width="1.6" stroke-linecap="round" stroke-dasharray="216" style="animation:g2L3 9.6s linear infinite"></line><line x1="456" y1="175" x2="660" y2="242" stroke="#3366cc" stroke-width="1.6" stroke-linecap="round" stroke-dasharray="215" style="animation:g2L4 9.6s linear infinite"></line><line x1="456" y1="175" x2="607" y2="344" stroke="#3366cc" stroke-width="1.6" stroke-linecap="round" stroke-dasharray="227" style="animation:g2L5 9.6s linear infinite"></line><line x1="595" y1="11" x2="431" y2="-143" stroke="#3366cc" stroke-width="1.6" stroke-linecap="round" stroke-dasharray="225" style="animation:g3L0 9.6s linear infinite"></line><line x1="595" y1="11" x2="561" y2="-211" stroke="#3366cc" stroke-width="1.6" stroke-linecap="round" stroke-dasharray="225" style="animation:g3L1 9.6s linear infinite"></line><line x1="595" y1="11" x2="677" y2="-199" stroke="#3366cc" stroke-width="1.6" stroke-linecap="round" stroke-dasharray="225" style="animation:g3L2 9.6s linear infinite"></line><line x1="595" y1="11" x2="788" y2="-104" stroke="#3366cc" stroke-width="1.6" stroke-linecap="round" stroke-dasharray="225" style="animation:g3L3 9.6s linear infinite"></line><line x1="595" y1="11" x2="818" y2="40" stroke="#3366cc" stroke-width="1.6" stroke-linecap="round" stroke-dasharray="225" style="animation:g3L4 9.6s linear infinite"></line><line x1="595" y1="11" x2="774" y2="147" stroke="#3366cc" stroke-width="1.6" stroke-linecap="round" stroke-dasharray="225" style="animation:g3L5 9.6s linear infinite"></line><line x1="607" y1="344" x2="495" y2="345" stroke="#3366cc" stroke-width="1.6" stroke-linecap="round" stroke-dasharray="112" style="animation:x20 9.6s linear infinite"></line><line x1="356" y1="-15" x2="300" y2="100" stroke="#3366cc" stroke-width="1.6" stroke-linecap="round" stroke-dasharray="128" style="animation:x21 9.6s linear infinite"></line><line x1="667" y1="131" x2="495" y2="345" stroke="#3366cc" stroke-width="1.6" stroke-linecap="round" stroke-dasharray="275" style="animation:x22 9.6s linear infinite"></line><line x1="774" y1="147" x2="667" y2="131" stroke="#3366cc" stroke-width="1.6" stroke-linecap="round" stroke-dasharray="108" style="animation:x30 9.6s linear infinite"></line><line x1="431" y1="-143" x2="465" y2="-40" stroke="#3366cc" stroke-width="1.6" stroke-linecap="round" stroke-dasharray="108" style="animation:x31 9.6s linear infinite"></line><line x1="818" y1="40" x2="667" y2="131" stroke="#3366cc" stroke-width="1.6" stroke-linecap="round" stroke-dasharray="176" style="animation:x32 9.6s linear infinite"></line></g>
  <g transform="translate(224,230)"><g style="transform-origin:76px 70px;animation:c0 9.6s linear infinite"><rect width="152" height="140" rx="6" fill="#fff" stroke="#c8ccd1" stroke-width="1.5" filter="url(#shLg)"></rect><rect x="10" y="10" width="132" height="84" rx="5" fill="#bcd2f7"></rect><rect x="14" y="104" width="110" height="8" rx="4" fill="#a9afb6"></rect><rect x="14" y="120" width="78" height="8" rx="4" fill="#c4c9cf"></rect></g></g>
  <g><g transform="translate(258,61)"><g style="transform-origin:42px 39px;animation:g1N0 9.6s linear infinite"><rect width="84" height="78" rx="4" fill="#fff" stroke="#c8ccd1" stroke-width="1.5" filter="url(#shSm)"></rect><rect x="4" y="4" width="76" height="50" rx="3" fill="#bcd2f7"></rect><rect x="7" y="61" width="58" height="6.5" rx="3.25" fill="#a9afb6"></rect></g></g><g transform="translate(414,136)"><g style="transform-origin:42px 39px;animation:g1N1 9.6s linear infinite"><rect width="84" height="78" rx="4" fill="#fff" stroke="#c8ccd1" stroke-width="1.5" filter="url(#shSm)"></rect><rect x="4" y="4" width="76" height="50" rx="3" fill="#c7e6c8"></rect><rect x="7" y="61" width="58" height="6.5" rx="3.25" fill="#a9afb6"></rect></g></g><g transform="translate(453,306)"><g style="transform-origin:42px 39px;animation:g1N2 9.6s linear infinite"><rect width="84" height="78" rx="4" fill="#fff" stroke="#c8ccd1" stroke-width="1.5" filter="url(#shSm)"></rect><rect x="4" y="4" width="76" height="50" rx="3" fill="#f4e2b0"></rect><rect x="7" y="61" width="58" height="6.5" rx="3.25" fill="#a9afb6"></rect></g></g><g transform="translate(345,441)"><g style="transform-origin:42px 39px;animation:g1N3 9.6s linear infinite"><rect width="84" height="78" rx="4" fill="#fff" stroke="#c8ccd1" stroke-width="1.5" filter="url(#shSm)"></rect><rect x="4" y="4" width="76" height="50" rx="3" fill="#f3d2d2"></rect><rect x="7" y="61" width="58" height="6.5" rx="3.25" fill="#a9afb6"></rect></g></g><g transform="translate(171,441)"><g style="transform-origin:42px 39px;animation:g1N4 9.6s linear infinite"><rect width="84" height="78" rx="4" fill="#fff" stroke="#c8ccd1" stroke-width="1.5" filter="url(#shSm)"></rect><rect x="4" y="4" width="76" height="50" rx="3" fill="#ddd0ef"></rect><rect x="7" y="61" width="58" height="6.5" rx="3.25" fill="#a9afb6"></rect></g></g><g transform="translate(63,306)"><g style="transform-origin:42px 39px;animation:g1N5 9.6s linear infinite"><rect width="84" height="78" rx="4" fill="#fff" stroke="#c8ccd1" stroke-width="1.5" filter="url(#shSm)"></rect><rect x="4" y="4" width="76" height="50" rx="3" fill="#cbe8e8"></rect><rect x="7" y="61" width="58" height="6.5" rx="3.25" fill="#a9afb6"></rect></g></g><g transform="translate(102,136)"><g style="transform-origin:42px 39px;animation:g1N6 9.6s linear infinite"><rect width="84" height="78" rx="4" fill="#fff" stroke="#c8ccd1" stroke-width="1.5" filter="url(#shSm)"></rect><rect x="4" y="4" width="76" height="50" rx="3" fill="#dfe3e8"></rect><rect x="7" y="61" width="58" height="6.5" rx="3.25" fill="#a9afb6"></rect></g></g><g transform="translate(314,-54)"><g style="transform-origin:42px 39px;animation:g2N0 9.6s linear infinite"><rect width="84" height="78" rx="4" fill="#fff" stroke="#c8ccd1" stroke-width="1.5" filter="url(#shSm)"></rect><rect x="4" y="4" width="76" height="50" rx="3" fill="#f3d2d2"></rect><rect x="7" y="61" width="58" height="6.5" rx="3.25" fill="#a9afb6"></rect></g></g><g transform="translate(423,-79)"><g style="transform-origin:42px 39px;animation:g2N1 9.6s linear infinite"><rect width="84" height="78" rx="4" fill="#fff" stroke="#c8ccd1" stroke-width="1.5" filter="url(#shSm)"></rect><rect x="4" y="4" width="76" height="50" rx="3" fill="#ddd0ef"></rect><rect x="7" y="61" width="58" height="6.5" rx="3.25" fill="#a9afb6"></rect></g></g><g transform="translate(553,-28)"><g style="transform-origin:42px 39px;animation:g2N2 9.6s linear infinite"><rect width="84" height="78" rx="4" fill="#fff" stroke="#c8ccd1" stroke-width="1.5" filter="url(#shSm)"></rect><rect x="4" y="4" width="76" height="50" rx="3" fill="#cbe8e8"></rect><rect x="7" y="61" width="58" height="6.5" rx="3.25" fill="#a9afb6"></rect></g></g><g transform="translate(625,92)"><g style="transform-origin:42px 39px;animation:g2N3 9.6s linear infinite"><rect width="84" height="78" rx="4" fill="#fff" stroke="#c8ccd1" stroke-width="1.5" filter="url(#shSm)"></rect><rect x="4" y="4" width="76" height="50" rx="3" fill="#dfe3e8"></rect><rect x="7" y="61" width="58" height="6.5" rx="3.25" fill="#a9afb6"></rect></g></g><g transform="translate(618,203)"><g style="transform-origin:42px 39px;animation:g2N4 9.6s linear infinite"><rect width="84" height="78" rx="4" fill="#fff" stroke="#c8ccd1" stroke-width="1.5" filter="url(#shSm)"></rect><rect x="4" y="4" width="76" height="50" rx="3" fill="#f0d8c4"></rect><rect x="7" y="61" width="58" height="6.5" rx="3.25" fill="#a9afb6"></rect></g></g><g transform="translate(565,305)"><g style="transform-origin:42px 39px;animation:g2N5 9.6s linear infinite"><rect width="84" height="78" rx="4" fill="#fff" stroke="#c8ccd1" stroke-width="1.5" filter="url(#shSm)"></rect><rect x="4" y="4" width="76" height="50" rx="3" fill="#cfe0fb"></rect><rect x="7" y="61" width="58" height="6.5" rx="3.25" fill="#a9afb6"></rect></g></g><g transform="translate(389,-182)"><g style="transform-origin:42px 39px;animation:g3N0 9.6s linear infinite"><rect width="84" height="78" rx="4" fill="#fff" stroke="#c8ccd1" stroke-width="1.5" filter="url(#shSm)"></rect><rect x="4" y="4" width="76" height="50" rx="3" fill="#dfe3e8"></rect><rect x="7" y="61" width="58" height="6.5" rx="3.25" fill="#a9afb6"></rect></g></g><g transform="translate(519,-250)"><g style="transform-origin:42px 39px;animation:g3N1 9.6s linear infinite"><rect width="84" height="78" rx="4" fill="#fff" stroke="#c8ccd1" stroke-width="1.5" filter="url(#shSm)"></rect><rect x="4" y="4" width="76" height="50" rx="3" fill="#f0d8c4"></rect><rect x="7" y="61" width="58" height="6.5" rx="3.25" fill="#a9afb6"></rect></g></g><g transform="translate(635,-238)"><g style="transform-origin:42px 39px;animation:g3N2 9.6s linear infinite"><rect width="84" height="78" rx="4" fill="#fff" stroke="#c8ccd1" stroke-width="1.5" filter="url(#shSm)"></rect><rect x="4" y="4" width="76" height="50" rx="3" fill="#cfe0fb"></rect><rect x="7" y="61" width="58" height="6.5" rx="3.25" fill="#a9afb6"></rect></g></g><g transform="translate(746,-143)"><g style="transform-origin:42px 39px;animation:g3N3 9.6s linear infinite"><rect width="84" height="78" rx="4" fill="#fff" stroke="#c8ccd1" stroke-width="1.5" filter="url(#shSm)"></rect><rect x="4" y="4" width="76" height="50" rx="3" fill="#d8ecd0"></rect><rect x="7" y="61" width="58" height="6.5" rx="3.25" fill="#a9afb6"></rect></g></g><g transform="translate(776,1)"><g style="transform-origin:42px 39px;animation:g3N4 9.6s linear infinite"><rect width="84" height="78" rx="4" fill="#fff" stroke="#c8ccd1" stroke-width="1.5" filter="url(#shSm)"></rect><rect x="4" y="4" width="76" height="50" rx="3" fill="#e7dcc6"></rect><rect x="7" y="61" width="58" height="6.5" rx="3.25" fill="#a9afb6"></rect></g></g><g transform="translate(732,108)"><g style="transform-origin:42px 39px;animation:g3N5 9.6s linear infinite"><rect width="84" height="78" rx="4" fill="#fff" stroke="#c8ccd1" stroke-width="1.5" filter="url(#shSm)"></rect><rect x="4" y="4" width="76" height="50" rx="3" fill="#cfe3f0"></rect><rect x="7" y="61" width="58" height="6.5" rx="3.25" fill="#a9afb6"></rect></g></g></g>
  <g><rect x="410" y="132" width="92" height="86" rx="6" fill="none" stroke="#3366cc" stroke-width="2.5" style="animation:ring1 9.6s linear infinite"></rect><rect x="549" y="-32" width="92" height="86" rx="6" fill="none" stroke="#3366cc" stroke-width="2.5" style="animation:ring2 9.6s linear infinite"></rect></g>
  <g><g transform="translate(456,175)"><g style="transform-origin:0px 0px;animation:rip1 9.6s linear infinite"><circle r="46" fill="none" stroke="#3366cc" stroke-width="3"></circle><circle r="11" fill="#3366cc" opacity="0.18"></circle></g></g><g transform="translate(595,11)"><g style="transform-origin:0px 0px;animation:rip2 9.6s linear infinite"><circle r="46" fill="none" stroke="#3366cc" stroke-width="3"></circle><circle r="11" fill="#3366cc" opacity="0.18"></circle></g></g></g>
</g>
</svg>